<mxfile host="app.diagrams.net" modified="2021-10-11T07:41:41.544Z" agent="5.0 (Windows NT 10.0; Win64; x64) AppleWebKit/537.36 (KHTML, like Gecko) Chrome/94.0.4606.71 Safari/537.36" etag="Z7k_94TWr9bgTK8h0bmr" version="15.5.0" type="github">
  <diagram id="h_WCzTEGOO7Zwu3tdvl2" name="Page-1">
    <mxGraphModel dx="1038" dy="491" grid="1" gridSize="10" guides="1" tooltips="1" connect="1" arrows="1" fold="1" page="1" pageScale="1" pageWidth="827" pageHeight="1169" math="0" shadow="0">
      <root>
        <mxCell id="0" />
        <mxCell id="1" parent="0" />
        <mxCell id="w6Jm6B5N1MU-uJWMBREx-1" value="" style="rounded=1;whiteSpace=wrap;html=1;fillColor=#fff2cc;strokeColor=#d6b656;shadow=0;sketch=0;strokeWidth=2;" vertex="1" parent="1">
          <mxGeometry x="250" y="190" width="460" height="220" as="geometry" />
        </mxCell>
        <mxCell id="w6Jm6B5N1MU-uJWMBREx-2" value="" style="edgeStyle=elbowEdgeStyle;elbow=vertical;endArrow=classic;html=1;rounded=0;strokeWidth=2;" edge="1" parent="1">
          <mxGeometry width="50" height="50" relative="1" as="geometry">
            <mxPoint x="280" y="440" as="sourcePoint" />
            <mxPoint x="320" y="231" as="targetPoint" />
            <Array as="points">
              <mxPoint x="310" y="377" />
            </Array>
          </mxGeometry>
        </mxCell>
        <mxCell id="w6Jm6B5N1MU-uJWMBREx-4" value="" style="line;strokeWidth=2;html=1;" vertex="1" parent="1">
          <mxGeometry x="210" y="372" width="70" height="10" as="geometry" />
        </mxCell>
        <mxCell id="w6Jm6B5N1MU-uJWMBREx-5" value="&lt;span lang=&quot;EN-US&quot; style=&quot;font-family: &amp;#34;times new roman&amp;#34; , serif&quot;&gt;&lt;span style=&quot;font-family: &amp;#34;helvetica&amp;#34; ; font-size: 16px ; text-align: left&quot;&gt;σ&lt;/span&gt;&lt;br&gt;&lt;/span&gt;" style="rounded=0;whiteSpace=wrap;html=1;fillColor=#dae8fc;strokeColor=#6c8ebf;" vertex="1" parent="1">
          <mxGeometry x="303" y="330" width="30" height="27" as="geometry" />
        </mxCell>
        <mxCell id="w6Jm6B5N1MU-uJWMBREx-7" value="" style="line;strokeWidth=2;html=1;fontSize=16;" vertex="1" parent="1">
          <mxGeometry x="210" y="215" width="490" height="10" as="geometry" />
        </mxCell>
        <mxCell id="w6Jm6B5N1MU-uJWMBREx-9" value="" style="edgeStyle=elbowEdgeStyle;elbow=horizontal;endArrow=classic;html=1;rounded=0;fontSize=16;strokeWidth=2;" edge="1" parent="1">
          <mxGeometry width="50" height="50" relative="1" as="geometry">
            <mxPoint x="320" y="377" as="sourcePoint" />
            <mxPoint x="626" y="300" as="targetPoint" />
            <Array as="points">
              <mxPoint x="586" y="350" />
              <mxPoint x="516" y="290" />
            </Array>
          </mxGeometry>
        </mxCell>
        <mxCell id="w6Jm6B5N1MU-uJWMBREx-11" value="" style="edgeStyle=segmentEdgeStyle;endArrow=classic;html=1;rounded=0;fontSize=16;strokeWidth=2;startArrow=none;entryX=0.5;entryY=1;entryDx=0;entryDy=0;" edge="1" parent="1" source="w6Jm6B5N1MU-uJWMBREx-50" target="w6Jm6B5N1MU-uJWMBREx-20">
          <mxGeometry width="50" height="50" relative="1" as="geometry">
            <mxPoint x="490" y="375" as="sourcePoint" />
            <mxPoint x="490" y="245" as="targetPoint" />
          </mxGeometry>
        </mxCell>
        <mxCell id="w6Jm6B5N1MU-uJWMBREx-13" value="" style="edgeStyle=elbowEdgeStyle;elbow=horizontal;endArrow=classic;html=1;rounded=0;fontSize=16;strokeWidth=2;" edge="1" parent="1">
          <mxGeometry width="50" height="50" relative="1" as="geometry">
            <mxPoint x="424" y="375" as="sourcePoint" />
            <mxPoint x="478" y="295" as="targetPoint" />
            <Array as="points">
              <mxPoint x="424" y="325" />
            </Array>
          </mxGeometry>
        </mxCell>
        <mxCell id="w6Jm6B5N1MU-uJWMBREx-14" value="&lt;span lang=&quot;EN-US&quot; style=&quot;font-family: &amp;#34;times new roman&amp;#34; , serif&quot;&gt;&lt;span style=&quot;font-family: &amp;#34;helvetica&amp;#34; ; font-size: 16px ; text-align: left&quot;&gt;σ&lt;/span&gt;&lt;br&gt;&lt;/span&gt;" style="rounded=0;whiteSpace=wrap;html=1;fillColor=#dae8fc;strokeColor=#6c8ebf;" vertex="1" parent="1">
          <mxGeometry x="408" y="330" width="30" height="27" as="geometry" />
        </mxCell>
        <mxCell id="w6Jm6B5N1MU-uJWMBREx-15" value="&lt;span lang=&quot;EN-US&quot; style=&quot;font-family: &amp;#34;times new roman&amp;#34; , serif&quot;&gt;&lt;font size=&quot;1&quot;&gt;&lt;b style=&quot;font-size: 16px&quot;&gt;&lt;i&gt;tanh&lt;/i&gt;&lt;/b&gt;&lt;/font&gt;&lt;br&gt;&lt;/span&gt;" style="rounded=0;whiteSpace=wrap;html=1;fillColor=#dae8fc;strokeColor=#6c8ebf;" vertex="1" parent="1">
          <mxGeometry x="470" y="330" width="40" height="20" as="geometry" />
        </mxCell>
        <mxCell id="w6Jm6B5N1MU-uJWMBREx-16" value="" style="edgeStyle=segmentEdgeStyle;endArrow=none;html=1;rounded=0;fontSize=16;strokeWidth=2;" edge="1" parent="1" target="w6Jm6B5N1MU-uJWMBREx-15">
          <mxGeometry width="50" height="50" relative="1" as="geometry">
            <mxPoint x="490" y="375" as="sourcePoint" />
            <mxPoint x="490" y="245" as="targetPoint" />
          </mxGeometry>
        </mxCell>
        <mxCell id="w6Jm6B5N1MU-uJWMBREx-17" value="&lt;span lang=&quot;EN-US&quot; style=&quot;font-family: &amp;#34;times new roman&amp;#34; , serif&quot;&gt;&lt;span style=&quot;font-family: &amp;#34;helvetica&amp;#34; ; font-size: 16px ; text-align: left&quot;&gt;σ&lt;/span&gt;&lt;br&gt;&lt;/span&gt;" style="rounded=0;whiteSpace=wrap;html=1;fillColor=#dae8fc;strokeColor=#6c8ebf;" vertex="1" parent="1">
          <mxGeometry x="571" y="330" width="30" height="27" as="geometry" />
        </mxCell>
        <mxCell id="w6Jm6B5N1MU-uJWMBREx-20" value="+" style="ellipse;whiteSpace=wrap;html=1;aspect=fixed;fontSize=16;fillColor=#dae8fc;strokeColor=#6c8ebf;" vertex="1" parent="1">
          <mxGeometry x="475" y="206" width="25" height="25" as="geometry" />
        </mxCell>
        <mxCell id="w6Jm6B5N1MU-uJWMBREx-22" value="" style="edgeStyle=elbowEdgeStyle;elbow=vertical;endArrow=classic;html=1;rounded=0;fontSize=16;strokeWidth=2;exitX=0.877;exitY=0.64;exitDx=0;exitDy=0;exitPerimeter=0;" edge="1" parent="1" source="w6Jm6B5N1MU-uJWMBREx-7">
          <mxGeometry width="50" height="50" relative="1" as="geometry">
            <mxPoint x="640" y="240" as="sourcePoint" />
            <mxPoint x="740" y="375" as="targetPoint" />
            <Array as="points">
              <mxPoint x="650" y="375" />
            </Array>
          </mxGeometry>
        </mxCell>
        <mxCell id="w6Jm6B5N1MU-uJWMBREx-24" value="&lt;b style=&quot;font-family: &amp;#34;times new roman&amp;#34; , serif&quot;&gt;&lt;i&gt;tanh&lt;/i&gt;&lt;/b&gt;" style="ellipse;whiteSpace=wrap;html=1;fontSize=16;fillColor=#dae8fc;strokeColor=#6c8ebf;" vertex="1" parent="1">
          <mxGeometry x="615" y="242" width="48" height="30" as="geometry" />
        </mxCell>
        <mxCell id="w6Jm6B5N1MU-uJWMBREx-31" value="" style="endArrow=none;html=1;rounded=0;fontSize=16;strokeWidth=2;edgeStyle=orthogonalEdgeStyle;" edge="1" parent="1">
          <mxGeometry width="50" height="50" relative="1" as="geometry">
            <mxPoint x="680" y="364" as="sourcePoint" />
            <mxPoint x="680" y="230" as="targetPoint" />
            <Array as="points">
              <mxPoint x="680" y="374" />
              <mxPoint x="680" y="324" />
            </Array>
          </mxGeometry>
        </mxCell>
        <mxCell id="w6Jm6B5N1MU-uJWMBREx-33" value="" style="endArrow=classic;html=1;rounded=0;fontSize=16;strokeWidth=2;edgeStyle=orthogonalEdgeStyle;" edge="1" parent="1">
          <mxGeometry width="50" height="50" relative="1" as="geometry">
            <mxPoint x="680" y="210" as="sourcePoint" />
            <mxPoint x="680" y="170" as="targetPoint" />
          </mxGeometry>
        </mxCell>
        <mxCell id="w6Jm6B5N1MU-uJWMBREx-34" value="" style="endArrow=classic;html=1;rounded=0;fontSize=16;strokeWidth=2;edgeStyle=orthogonalEdgeStyle;" edge="1" parent="1">
          <mxGeometry width="50" height="50" relative="1" as="geometry">
            <mxPoint x="700" y="219.5" as="sourcePoint" />
            <mxPoint x="738" y="219.5" as="targetPoint" />
          </mxGeometry>
        </mxCell>
        <mxCell id="w6Jm6B5N1MU-uJWMBREx-36" value="&lt;b&gt;&lt;i&gt;h&lt;sub&gt;t&lt;/sub&gt;&lt;/i&gt;&lt;/b&gt;" style="text;html=1;strokeColor=none;fillColor=none;align=center;verticalAlign=middle;whiteSpace=wrap;rounded=0;shadow=0;glass=0;sketch=0;fontSize=16;" vertex="1" parent="1">
          <mxGeometry x="650" y="140" width="35" height="30" as="geometry" />
        </mxCell>
        <mxCell id="w6Jm6B5N1MU-uJWMBREx-37" value="&lt;b&gt;&lt;i&gt;C&lt;sub&gt;t&lt;/sub&gt;&lt;/i&gt;&lt;/b&gt;" style="text;html=1;strokeColor=none;fillColor=none;align=center;verticalAlign=middle;whiteSpace=wrap;rounded=0;shadow=0;glass=0;sketch=0;fontSize=16;" vertex="1" parent="1">
          <mxGeometry x="710" y="185" width="35" height="30" as="geometry" />
        </mxCell>
        <mxCell id="w6Jm6B5N1MU-uJWMBREx-38" value="&lt;b&gt;&lt;i&gt;h&lt;sub&gt;t&lt;/sub&gt;&lt;/i&gt;&lt;/b&gt;" style="text;html=1;strokeColor=none;fillColor=none;align=center;verticalAlign=middle;whiteSpace=wrap;rounded=0;shadow=0;glass=0;sketch=0;fontSize=16;" vertex="1" parent="1">
          <mxGeometry x="720" y="340" width="35" height="30" as="geometry" />
        </mxCell>
        <mxCell id="w6Jm6B5N1MU-uJWMBREx-39" value="&lt;b&gt;&lt;i&gt;h&lt;sub&gt;t-1&lt;/sub&gt;&lt;/i&gt;&lt;/b&gt;" style="text;html=1;strokeColor=none;fillColor=none;align=center;verticalAlign=middle;whiteSpace=wrap;rounded=0;shadow=0;glass=0;sketch=0;fontSize=16;" vertex="1" parent="1">
          <mxGeometry x="195" y="342" width="35" height="30" as="geometry" />
        </mxCell>
        <mxCell id="w6Jm6B5N1MU-uJWMBREx-40" value="&lt;b&gt;&lt;i&gt;C&lt;sub&gt;t-1&lt;/sub&gt;&lt;/i&gt;&lt;/b&gt;" style="text;html=1;strokeColor=none;fillColor=none;align=center;verticalAlign=middle;whiteSpace=wrap;rounded=0;shadow=0;glass=0;sketch=0;fontSize=16;" vertex="1" parent="1">
          <mxGeometry x="160" y="200" width="35" height="30" as="geometry" />
        </mxCell>
        <mxCell id="w6Jm6B5N1MU-uJWMBREx-41" value="&lt;b&gt;&lt;i&gt;x&lt;sub&gt;t&lt;/sub&gt;&lt;/i&gt;&lt;/b&gt;" style="text;html=1;strokeColor=none;fillColor=none;align=center;verticalAlign=middle;whiteSpace=wrap;rounded=0;shadow=0;glass=0;sketch=0;fontSize=16;" vertex="1" parent="1">
          <mxGeometry x="240" y="410" width="35" height="30" as="geometry" />
        </mxCell>
        <mxCell id="w6Jm6B5N1MU-uJWMBREx-42" value="&lt;b&gt;&lt;sub&gt;&lt;i&gt;&lt;span style=&quot;font-size: 16px&quot;&gt;f&lt;/span&gt;t&lt;/i&gt;&lt;/sub&gt;&lt;/b&gt;" style="text;html=1;strokeColor=none;fillColor=none;align=center;verticalAlign=middle;whiteSpace=wrap;rounded=0;shadow=0;glass=0;sketch=0;fontSize=16;" vertex="1" parent="1">
          <mxGeometry x="280" y="290" width="35" height="30" as="geometry" />
        </mxCell>
        <mxCell id="w6Jm6B5N1MU-uJWMBREx-43" value="&lt;b&gt;&lt;sub&gt;&lt;i&gt;&lt;span style=&quot;font-size: 16px&quot;&gt;i&lt;/span&gt;t&lt;/i&gt;&lt;/sub&gt;&lt;/b&gt;" style="text;html=1;strokeColor=none;fillColor=none;align=center;verticalAlign=middle;whiteSpace=wrap;rounded=0;shadow=0;glass=0;sketch=0;fontSize=16;" vertex="1" parent="1">
          <mxGeometry x="392" y="285" width="35" height="30" as="geometry" />
        </mxCell>
        <mxCell id="w6Jm6B5N1MU-uJWMBREx-44" value="&lt;b&gt;&lt;sub&gt;&lt;i&gt;&lt;span style=&quot;font-size: 16px&quot;&gt;c&lt;/span&gt;t&lt;/i&gt;&lt;/sub&gt;&lt;/b&gt;" style="text;html=1;strokeColor=none;fillColor=none;align=center;verticalAlign=middle;whiteSpace=wrap;rounded=0;shadow=0;glass=0;sketch=0;fontSize=16;" vertex="1" parent="1">
          <mxGeometry x="460" y="300" width="35" height="30" as="geometry" />
        </mxCell>
        <mxCell id="w6Jm6B5N1MU-uJWMBREx-45" value="&lt;b&gt;&lt;i&gt;o&lt;sub&gt;t&lt;/sub&gt;&lt;/i&gt;&lt;/b&gt;" style="text;html=1;strokeColor=none;fillColor=none;align=center;verticalAlign=middle;whiteSpace=wrap;rounded=0;shadow=0;glass=0;sketch=0;fontSize=16;" vertex="1" parent="1">
          <mxGeometry x="558" y="290" width="35" height="30" as="geometry" />
        </mxCell>
        <mxCell id="w6Jm6B5N1MU-uJWMBREx-49" value="x" style="ellipse;whiteSpace=wrap;html=1;aspect=fixed;fontSize=16;fillColor=#dae8fc;strokeColor=#6c8ebf;" vertex="1" parent="1">
          <mxGeometry x="307.5" y="204" width="25" height="25" as="geometry" />
        </mxCell>
        <mxCell id="w6Jm6B5N1MU-uJWMBREx-51" value="x" style="ellipse;whiteSpace=wrap;html=1;aspect=fixed;fontSize=16;fillColor=#dae8fc;strokeColor=#6c8ebf;" vertex="1" parent="1">
          <mxGeometry x="627" y="286" width="25" height="25" as="geometry" />
        </mxCell>
        <mxCell id="w6Jm6B5N1MU-uJWMBREx-50" value="x" style="ellipse;whiteSpace=wrap;html=1;aspect=fixed;fontSize=16;fillColor=#dae8fc;strokeColor=#6c8ebf;" vertex="1" parent="1">
          <mxGeometry x="477" y="282" width="25" height="25" as="geometry" />
        </mxCell>
        <mxCell id="w6Jm6B5N1MU-uJWMBREx-53" value="" style="edgeStyle=segmentEdgeStyle;endArrow=none;html=1;rounded=0;fontSize=16;strokeWidth=2;startArrow=none;entryX=0.5;entryY=1;entryDx=0;entryDy=0;" edge="1" parent="1" source="w6Jm6B5N1MU-uJWMBREx-15" target="w6Jm6B5N1MU-uJWMBREx-50">
          <mxGeometry width="50" height="50" relative="1" as="geometry">
            <mxPoint x="487.5" y="330" as="sourcePoint" />
            <mxPoint x="487.5" y="231" as="targetPoint" />
          </mxGeometry>
        </mxCell>
      </root>
    </mxGraphModel>
  </diagram>
</mxfile>
